<?xml version="1.0" encoding="utf-8" standalone="no"?>
<!DOCTYPE svg PUBLIC "-//W3C//DTD SVG 1.1//EN"
  "http://www.w3.org/Graphics/SVG/1.1/DTD/svg11.dtd">
<svg xmlns:xlink="http://www.w3.org/1999/xlink" width="991.735pt" height="410.169375pt" viewBox="0 0 991.735 410.169375" xmlns="http://www.w3.org/2000/svg" version="1.1">
 <metadata>
  <rdf:RDF xmlns:dc="http://purl.org/dc/elements/1.1/" xmlns:cc="http://creativecommons.org/ns#" xmlns:rdf="http://www.w3.org/1999/02/22-rdf-syntax-ns#">
   <cc:Work>
    <dc:type rdf:resource="http://purl.org/dc/dcmitype/StillImage"/>
    <dc:date>2025-12-07T14:36:45.326535</dc:date>
    <dc:format>image/svg+xml</dc:format>
    <dc:creator>
     <cc:Agent>
      <dc:title>Matplotlib v3.9.2, https://matplotlib.org/</dc:title>
     </cc:Agent>
    </dc:creator>
   </cc:Work>
  </rdf:RDF>
 </metadata>
 <defs>
  <style type="text/css">*{stroke-linejoin: round; stroke-linecap: butt}</style>
 </defs>
 <g id="figure_1">
  <g id="patch_1">
   <path d="M 0 410.169375 
L 991.735 410.169375 
L 991.735 0 
L 0 0 
z
" style="fill: #ffffff"/>
  </g>
  <g id="axes_1">
   <g id="patch_2">
    <path d="M 68.15 352.26 
L 488.0325 352.26 
L 488.0325 7.2 
L 68.15 7.2 
z
" style="fill: #ffffff"/>
   </g>
   <g id="matplotlib.axis_1">
    <g id="xtick_1">
     <g id="text_1">
      <!-- 1 -->
      <g style="fill: #262626" transform="translate(65.643919 369.897812) scale(0.14 -0.14)">
       <defs>
        <path id="DejaVuSans-31" d="M 794 531 
L 1825 531 
L 1825 4091 
L 703 3866 
L 703 4441 
L 1819 4666 
L 2450 4666 
L 2450 531 
L 3481 531 
L 3481 0 
L 794 0 
L 794 531 
z
" transform="scale(0.015625)"/>
       </defs>
       <use xlink:href="#DejaVuSans-31"/>
      </g>
     </g>
    </g>
    <g id="xtick_2">
     <g id="text_2">
      <!-- 2 -->
      <g style="fill: #262626" transform="translate(136.604892 369.897812) scale(0.14 -0.14)">
       <defs>
        <path id="DejaVuSans-32" d="M 1228 531 
L 3431 531 
L 3431 0 
L 469 0 
L 469 531 
Q 828 903 1448 1529 
Q 2069 2156 2228 2338 
Q 2531 2678 2651 2914 
Q 2772 3150 2772 3378 
Q 2772 3750 2511 3984 
Q 2250 4219 1831 4219 
Q 1534 4219 1204 4116 
Q 875 4013 500 3803 
L 500 4441 
Q 881 4594 1212 4672 
Q 1544 4750 1819 4750 
Q 2544 4750 2975 4387 
Q 3406 4025 3406 3419 
Q 3406 3131 3298 2873 
Q 3191 2616 2906 2266 
Q 2828 2175 2409 1742 
Q 1991 1309 1228 531 
z
" transform="scale(0.015625)"/>
       </defs>
       <use xlink:href="#DejaVuSans-32"/>
      </g>
     </g>
    </g>
    <g id="xtick_3">
     <g id="text_3">
      <!-- 3 -->
      <g style="fill: #262626" transform="translate(207.565865 369.897812) scale(0.14 -0.14)">
       <defs>
        <path id="DejaVuSans-33" d="M 2597 2516 
Q 3050 2419 3304 2112 
Q 3559 1806 3559 1356 
Q 3559 666 3084 287 
Q 2609 -91 1734 -91 
Q 1441 -91 1130 -33 
Q 819 25 488 141 
L 488 750 
Q 750 597 1062 519 
Q 1375 441 1716 441 
Q 2309 441 2620 675 
Q 2931 909 2931 1356 
Q 2931 1769 2642 2001 
Q 2353 2234 1838 2234 
L 1294 2234 
L 1294 2753 
L 1863 2753 
Q 2328 2753 2575 2939 
Q 2822 3125 2822 3475 
Q 2822 3834 2567 4026 
Q 2313 4219 1838 4219 
Q 1578 4219 1281 4162 
Q 984 4106 628 3988 
L 628 4550 
Q 988 4650 1302 4700 
Q 1616 4750 1894 4750 
Q 2613 4750 3031 4423 
Q 3450 4097 3450 3541 
Q 3450 3153 3228 2886 
Q 3006 2619 2597 2516 
z
" transform="scale(0.015625)"/>
       </defs>
       <use xlink:href="#DejaVuSans-33"/>
      </g>
     </g>
    </g>
    <g id="xtick_4">
     <g id="text_4">
      <!-- 4 -->
      <g style="fill: #262626" transform="translate(278.526839 369.897812) scale(0.14 -0.14)">
       <defs>
        <path id="DejaVuSans-34" d="M 2419 4116 
L 825 1625 
L 2419 1625 
L 2419 4116 
z
M 2253 4666 
L 3047 4666 
L 3047 1625 
L 3713 1625 
L 3713 1100 
L 3047 1100 
L 3047 0 
L 2419 0 
L 2419 1100 
L 313 1100 
L 313 1709 
L 2253 4666 
z
" transform="scale(0.015625)"/>
       </defs>
       <use xlink:href="#DejaVuSans-34"/>
      </g>
     </g>
    </g>
    <g id="xtick_5">
     <g id="text_5">
      <!-- 5 -->
      <g style="fill: #262626" transform="translate(349.487812 369.897812) scale(0.14 -0.14)">
       <defs>
        <path id="DejaVuSans-35" d="M 691 4666 
L 3169 4666 
L 3169 4134 
L 1269 4134 
L 1269 2991 
Q 1406 3038 1543 3061 
Q 1681 3084 1819 3084 
Q 2600 3084 3056 2656 
Q 3513 2228 3513 1497 
Q 3513 744 3044 326 
Q 2575 -91 1722 -91 
Q 1428 -91 1123 -41 
Q 819 9 494 109 
L 494 744 
Q 775 591 1075 516 
Q 1375 441 1709 441 
Q 2250 441 2565 725 
Q 2881 1009 2881 1497 
Q 2881 1984 2565 2268 
Q 2250 2553 1709 2553 
Q 1456 2553 1204 2497 
Q 953 2441 691 2322 
L 691 4666 
z
" transform="scale(0.015625)"/>
       </defs>
       <use xlink:href="#DejaVuSans-35"/>
      </g>
     </g>
    </g>
    <g id="xtick_6">
     <g id="text_6">
      <!-- 6 -->
      <g style="fill: #262626" transform="translate(420.448786 369.897812) scale(0.14 -0.14)">
       <defs>
        <path id="DejaVuSans-36" d="M 2113 2584 
Q 1688 2584 1439 2293 
Q 1191 2003 1191 1497 
Q 1191 994 1439 701 
Q 1688 409 2113 409 
Q 2538 409 2786 701 
Q 3034 994 3034 1497 
Q 3034 2003 2786 2293 
Q 2538 2584 2113 2584 
z
M 3366 4563 
L 3366 3988 
Q 3128 4100 2886 4159 
Q 2644 4219 2406 4219 
Q 1781 4219 1451 3797 
Q 1122 3375 1075 2522 
Q 1259 2794 1537 2939 
Q 1816 3084 2150 3084 
Q 2853 3084 3261 2657 
Q 3669 2231 3669 1497 
Q 3669 778 3244 343 
Q 2819 -91 2113 -91 
Q 1303 -91 875 529 
Q 447 1150 447 2328 
Q 447 3434 972 4092 
Q 1497 4750 2381 4750 
Q 2619 4750 2861 4703 
Q 3103 4656 3366 4563 
z
" transform="scale(0.015625)"/>
       </defs>
       <use xlink:href="#DejaVuSans-36"/>
      </g>
     </g>
    </g>
    <g id="text_7">
     <!-- $\log(K_d)_{\mathrm{lig}}$ -->
     <g style="fill: #262626" transform="translate(226.37125 395.049375) scale(0.24 -0.24)">
      <defs>
       <path id="DejaVuSans-6c" d="M 603 4863 
L 1178 4863 
L 1178 0 
L 603 0 
L 603 4863 
z
" transform="scale(0.015625)"/>
       <path id="DejaVuSans-6f" d="M 1959 3097 
Q 1497 3097 1228 2736 
Q 959 2375 959 1747 
Q 959 1119 1226 758 
Q 1494 397 1959 397 
Q 2419 397 2687 759 
Q 2956 1122 2956 1747 
Q 2956 2369 2687 2733 
Q 2419 3097 1959 3097 
z
M 1959 3584 
Q 2709 3584 3137 3096 
Q 3566 2609 3566 1747 
Q 3566 888 3137 398 
Q 2709 -91 1959 -91 
Q 1206 -91 779 398 
Q 353 888 353 1747 
Q 353 2609 779 3096 
Q 1206 3584 1959 3584 
z
" transform="scale(0.015625)"/>
       <path id="DejaVuSans-67" d="M 2906 1791 
Q 2906 2416 2648 2759 
Q 2391 3103 1925 3103 
Q 1463 3103 1205 2759 
Q 947 2416 947 1791 
Q 947 1169 1205 825 
Q 1463 481 1925 481 
Q 2391 481 2648 825 
Q 2906 1169 2906 1791 
z
M 3481 434 
Q 3481 -459 3084 -895 
Q 2688 -1331 1869 -1331 
Q 1566 -1331 1297 -1286 
Q 1028 -1241 775 -1147 
L 775 -588 
Q 1028 -725 1275 -790 
Q 1522 -856 1778 -856 
Q 2344 -856 2625 -561 
Q 2906 -266 2906 331 
L 2906 616 
Q 2728 306 2450 153 
Q 2172 0 1784 0 
Q 1141 0 747 490 
Q 353 981 353 1791 
Q 353 2603 747 3093 
Q 1141 3584 1784 3584 
Q 2172 3584 2450 3431 
Q 2728 3278 2906 2969 
L 2906 3500 
L 3481 3500 
L 3481 434 
z
" transform="scale(0.015625)"/>
       <path id="DejaVuSans-28" d="M 1984 4856 
Q 1566 4138 1362 3434 
Q 1159 2731 1159 2009 
Q 1159 1288 1364 580 
Q 1569 -128 1984 -844 
L 1484 -844 
Q 1016 -109 783 600 
Q 550 1309 550 2009 
Q 550 2706 781 3412 
Q 1013 4119 1484 4856 
L 1984 4856 
z
" transform="scale(0.015625)"/>
       <path id="DejaVuSans-Oblique-4b" d="M 1081 4666 
L 1716 4666 
L 1331 2700 
L 3781 4666 
L 4622 4666 
L 1850 2438 
L 3878 0 
L 3109 0 
L 1247 2272 
L 806 0 
L 172 0 
L 1081 4666 
z
" transform="scale(0.015625)"/>
       <path id="DejaVuSans-Oblique-64" d="M 2675 525 
Q 2444 222 2128 65 
Q 1813 -91 1428 -91 
Q 903 -91 598 267 
Q 294 625 294 1247 
Q 294 1766 478 2236 
Q 663 2706 1013 3078 
Q 1244 3325 1534 3454 
Q 1825 3584 2144 3584 
Q 2481 3584 2739 3421 
Q 2997 3259 3138 2956 
L 3513 4863 
L 4091 4863 
L 3144 0 
L 2566 0 
L 2675 525 
z
M 891 1350 
Q 891 897 1095 644 
Q 1300 391 1663 391 
Q 1931 391 2161 520 
Q 2391 650 2566 903 
Q 2750 1166 2856 1509 
Q 2963 1853 2963 2188 
Q 2963 2622 2758 2865 
Q 2553 3109 2194 3109 
Q 1922 3109 1687 2981 
Q 1453 2853 1288 2613 
Q 1106 2353 998 2009 
Q 891 1666 891 1350 
z
" transform="scale(0.015625)"/>
       <path id="DejaVuSans-29" d="M 513 4856 
L 1013 4856 
Q 1481 4119 1714 3412 
Q 1947 2706 1947 2009 
Q 1947 1309 1714 600 
Q 1481 -109 1013 -844 
L 513 -844 
Q 928 -128 1133 580 
Q 1338 1288 1338 2009 
Q 1338 2731 1133 3434 
Q 928 4138 513 4856 
z
" transform="scale(0.015625)"/>
       <path id="DejaVuSans-69" d="M 603 3500 
L 1178 3500 
L 1178 0 
L 603 0 
L 603 3500 
z
M 603 4863 
L 1178 4863 
L 1178 4134 
L 603 4134 
L 603 4863 
z
" transform="scale(0.015625)"/>
      </defs>
      <use xlink:href="#DejaVuSans-6c" transform="translate(0 0.015625)"/>
      <use xlink:href="#DejaVuSans-6f" transform="translate(27.783203 0.015625)"/>
      <use xlink:href="#DejaVuSans-67" transform="translate(88.964844 0.015625)"/>
      <use xlink:href="#DejaVuSans-28" transform="translate(152.441406 0.015625)"/>
      <use xlink:href="#DejaVuSans-Oblique-4b" transform="translate(191.455078 0.015625)"/>
      <use xlink:href="#DejaVuSans-Oblique-64" transform="translate(257.03125 -16.390625) scale(0.7)"/>
      <use xlink:href="#DejaVuSans-29" transform="translate(304.199219 0.015625)"/>
      <use xlink:href="#DejaVuSans-6c" transform="translate(344.169922 -16.390625) scale(0.7)"/>
      <use xlink:href="#DejaVuSans-69" transform="translate(363.618164 -16.390625) scale(0.7)"/>
      <use xlink:href="#DejaVuSans-67" transform="translate(383.066406 -16.390625) scale(0.7)"/>
     </g>
    </g>
   </g>
   <g id="matplotlib.axis_2">
    <g id="ytick_1">
     <g id="text_8">
      <!-- 0 -->
      <g style="fill: #262626" transform="translate(52.2425 357.578906) scale(0.14 -0.14)">
       <defs>
        <path id="DejaVuSans-30" d="M 2034 4250 
Q 1547 4250 1301 3770 
Q 1056 3291 1056 2328 
Q 1056 1369 1301 889 
Q 1547 409 2034 409 
Q 2525 409 2770 889 
Q 3016 1369 3016 2328 
Q 3016 3291 2770 3770 
Q 2525 4250 2034 4250 
z
M 2034 4750 
Q 2819 4750 3233 4129 
Q 3647 3509 3647 2328 
Q 3647 1150 3233 529 
Q 2819 -91 2034 -91 
Q 1250 -91 836 529 
Q 422 1150 422 2328 
Q 422 3509 836 4129 
Q 1250 4750 2034 4750 
z
" transform="scale(0.015625)"/>
       </defs>
       <use xlink:href="#DejaVuSans-30"/>
      </g>
     </g>
    </g>
    <g id="ytick_2">
     <g id="text_9">
      <!-- 20 -->
      <g style="fill: #262626" transform="translate(43.335 290.511851) scale(0.14 -0.14)">
       <use xlink:href="#DejaVuSans-32"/>
       <use xlink:href="#DejaVuSans-30" x="63.623047"/>
      </g>
     </g>
    </g>
    <g id="ytick_3">
     <g id="text_10">
      <!-- 40 -->
      <g style="fill: #262626" transform="translate(43.335 223.444795) scale(0.14 -0.14)">
       <use xlink:href="#DejaVuSans-34"/>
       <use xlink:href="#DejaVuSans-30" x="63.623047"/>
      </g>
     </g>
    </g>
    <g id="ytick_4">
     <g id="text_11">
      <!-- 60 -->
      <g style="fill: #262626" transform="translate(43.335 156.37774) scale(0.14 -0.14)">
       <use xlink:href="#DejaVuSans-36"/>
       <use xlink:href="#DejaVuSans-30" x="63.623047"/>
      </g>
     </g>
    </g>
    <g id="ytick_5">
     <g id="text_12">
      <!-- 80 -->
      <g style="fill: #262626" transform="translate(43.335 89.310685) scale(0.14 -0.14)">
       <defs>
        <path id="DejaVuSans-38" d="M 2034 2216 
Q 1584 2216 1326 1975 
Q 1069 1734 1069 1313 
Q 1069 891 1326 650 
Q 1584 409 2034 409 
Q 2484 409 2743 651 
Q 3003 894 3003 1313 
Q 3003 1734 2745 1975 
Q 2488 2216 2034 2216 
z
M 1403 2484 
Q 997 2584 770 2862 
Q 544 3141 544 3541 
Q 544 4100 942 4425 
Q 1341 4750 2034 4750 
Q 2731 4750 3128 4425 
Q 3525 4100 3525 3541 
Q 3525 3141 3298 2862 
Q 3072 2584 2669 2484 
Q 3125 2378 3379 2068 
Q 3634 1759 3634 1313 
Q 3634 634 3220 271 
Q 2806 -91 2034 -91 
Q 1263 -91 848 271 
Q 434 634 434 1313 
Q 434 1759 690 2068 
Q 947 2378 1403 2484 
z
M 1172 3481 
Q 1172 3119 1398 2916 
Q 1625 2713 2034 2713 
Q 2441 2713 2670 2916 
Q 2900 3119 2900 3481 
Q 2900 3844 2670 4047 
Q 2441 4250 2034 4250 
Q 1625 4250 1398 4047 
Q 1172 3844 1172 3481 
z
" transform="scale(0.015625)"/>
       </defs>
       <use xlink:href="#DejaVuSans-38"/>
       <use xlink:href="#DejaVuSans-30" x="63.623047"/>
      </g>
     </g>
    </g>
    <g id="ytick_6">
     <g id="text_13">
      <!-- 100 -->
      <g style="fill: #262626" transform="translate(34.4275 22.243629) scale(0.14 -0.14)">
       <use xlink:href="#DejaVuSans-31"/>
       <use xlink:href="#DejaVuSans-30" x="63.623047"/>
       <use xlink:href="#DejaVuSans-30" x="127.246094"/>
      </g>
     </g>
    </g>
    <g id="text_14">
     <!-- Frequency -->
     <g style="fill: #262626" transform="translate(25.43625 241.72125) rotate(-90) scale(0.24 -0.24)">
      <defs>
       <path id="DejaVuSans-46" d="M 628 4666 
L 3309 4666 
L 3309 4134 
L 1259 4134 
L 1259 2759 
L 3109 2759 
L 3109 2228 
L 1259 2228 
L 1259 0 
L 628 0 
L 628 4666 
z
" transform="scale(0.015625)"/>
       <path id="DejaVuSans-72" d="M 2631 2963 
Q 2534 3019 2420 3045 
Q 2306 3072 2169 3072 
Q 1681 3072 1420 2755 
Q 1159 2438 1159 1844 
L 1159 0 
L 581 0 
L 581 3500 
L 1159 3500 
L 1159 2956 
Q 1341 3275 1631 3429 
Q 1922 3584 2338 3584 
Q 2397 3584 2469 3576 
Q 2541 3569 2628 3553 
L 2631 2963 
z
" transform="scale(0.015625)"/>
       <path id="DejaVuSans-65" d="M 3597 1894 
L 3597 1613 
L 953 1613 
Q 991 1019 1311 708 
Q 1631 397 2203 397 
Q 2534 397 2845 478 
Q 3156 559 3463 722 
L 3463 178 
Q 3153 47 2828 -22 
Q 2503 -91 2169 -91 
Q 1331 -91 842 396 
Q 353 884 353 1716 
Q 353 2575 817 3079 
Q 1281 3584 2069 3584 
Q 2775 3584 3186 3129 
Q 3597 2675 3597 1894 
z
M 3022 2063 
Q 3016 2534 2758 2815 
Q 2500 3097 2075 3097 
Q 1594 3097 1305 2825 
Q 1016 2553 972 2059 
L 3022 2063 
z
" transform="scale(0.015625)"/>
       <path id="DejaVuSans-71" d="M 947 1747 
Q 947 1113 1208 752 
Q 1469 391 1925 391 
Q 2381 391 2643 752 
Q 2906 1113 2906 1747 
Q 2906 2381 2643 2742 
Q 2381 3103 1925 3103 
Q 1469 3103 1208 2742 
Q 947 2381 947 1747 
z
M 2906 525 
Q 2725 213 2448 61 
Q 2172 -91 1784 -91 
Q 1150 -91 751 415 
Q 353 922 353 1747 
Q 353 2572 751 3078 
Q 1150 3584 1784 3584 
Q 2172 3584 2448 3432 
Q 2725 3281 2906 2969 
L 2906 3500 
L 3481 3500 
L 3481 -1331 
L 2906 -1331 
L 2906 525 
z
" transform="scale(0.015625)"/>
       <path id="DejaVuSans-75" d="M 544 1381 
L 544 3500 
L 1119 3500 
L 1119 1403 
Q 1119 906 1312 657 
Q 1506 409 1894 409 
Q 2359 409 2629 706 
Q 2900 1003 2900 1516 
L 2900 3500 
L 3475 3500 
L 3475 0 
L 2900 0 
L 2900 538 
Q 2691 219 2414 64 
Q 2138 -91 1772 -91 
Q 1169 -91 856 284 
Q 544 659 544 1381 
z
M 1991 3584 
L 1991 3584 
z
" transform="scale(0.015625)"/>
       <path id="DejaVuSans-6e" d="M 3513 2113 
L 3513 0 
L 2938 0 
L 2938 2094 
Q 2938 2591 2744 2837 
Q 2550 3084 2163 3084 
Q 1697 3084 1428 2787 
Q 1159 2491 1159 1978 
L 1159 0 
L 581 0 
L 581 3500 
L 1159 3500 
L 1159 2956 
Q 1366 3272 1645 3428 
Q 1925 3584 2291 3584 
Q 2894 3584 3203 3211 
Q 3513 2838 3513 2113 
z
" transform="scale(0.015625)"/>
       <path id="DejaVuSans-63" d="M 3122 3366 
L 3122 2828 
Q 2878 2963 2633 3030 
Q 2388 3097 2138 3097 
Q 1578 3097 1268 2742 
Q 959 2388 959 1747 
Q 959 1106 1268 751 
Q 1578 397 2138 397 
Q 2388 397 2633 464 
Q 2878 531 3122 666 
L 3122 134 
Q 2881 22 2623 -34 
Q 2366 -91 2075 -91 
Q 1284 -91 818 406 
Q 353 903 353 1747 
Q 353 2603 823 3093 
Q 1294 3584 2113 3584 
Q 2378 3584 2631 3529 
Q 2884 3475 3122 3366 
z
" transform="scale(0.015625)"/>
       <path id="DejaVuSans-79" d="M 2059 -325 
Q 1816 -950 1584 -1140 
Q 1353 -1331 966 -1331 
L 506 -1331 
L 506 -850 
L 844 -850 
Q 1081 -850 1212 -737 
Q 1344 -625 1503 -206 
L 1606 56 
L 191 3500 
L 800 3500 
L 1894 763 
L 2988 3500 
L 3597 3500 
L 2059 -325 
z
" transform="scale(0.015625)"/>
      </defs>
      <use xlink:href="#DejaVuSans-46"/>
      <use xlink:href="#DejaVuSans-72" x="50.269531"/>
      <use xlink:href="#DejaVuSans-65" x="89.132812"/>
      <use xlink:href="#DejaVuSans-71" x="150.65625"/>
      <use xlink:href="#DejaVuSans-75" x="214.132812"/>
      <use xlink:href="#DejaVuSans-65" x="277.511719"/>
      <use xlink:href="#DejaVuSans-6e" x="339.035156"/>
      <use xlink:href="#DejaVuSans-63" x="402.414062"/>
      <use xlink:href="#DejaVuSans-79" x="457.394531"/>
     </g>
    </g>
   </g>
   <g id="patch_3">
    <path d="M 87.235568 352.26 
L 99.95928 352.26 
L 99.95928 348.906647 
L 87.235568 348.906647 
z
" clip-path="url(#pf04f926767)" style="fill: #2e86ab; fill-opacity: 0.5; stroke: #000000; stroke-width: 0.5; stroke-linejoin: miter"/>
   </g>
   <g id="patch_4">
    <path d="M 99.95928 352.26 
L 112.682992 352.26 
L 112.682992 335.493236 
L 99.95928 335.493236 
z
" clip-path="url(#pf04f926767)" style="fill: #2e86ab; fill-opacity: 0.5; stroke: #000000; stroke-width: 0.5; stroke-linejoin: miter"/>
   </g>
   <g id="patch_5">
    <path d="M 112.682992 352.26 
L 125.406705 352.26 
L 125.406705 291.89965 
L 112.682992 291.89965 
z
" clip-path="url(#pf04f926767)" style="fill: #2e86ab; fill-opacity: 0.5; stroke: #000000; stroke-width: 0.5; stroke-linejoin: miter"/>
   </g>
   <g id="patch_6">
    <path d="M 125.406705 352.26 
L 138.130417 352.26 
L 138.130417 208.065831 
L 125.406705 208.065831 
z
" clip-path="url(#pf04f926767)" style="fill: #2e86ab; fill-opacity: 0.5; stroke: #000000; stroke-width: 0.5; stroke-linejoin: miter"/>
   </g>
   <g id="patch_7">
    <path d="M 138.130417 352.26 
L 150.854129 352.26 
L 150.854129 147.705481 
L 138.130417 147.705481 
z
" clip-path="url(#pf04f926767)" style="fill: #2e86ab; fill-opacity: 0.5; stroke: #000000; stroke-width: 0.5; stroke-linejoin: miter"/>
   </g>
   <g id="patch_8">
    <path d="M 150.854129 352.26 
L 163.577841 352.26 
L 163.577841 50.458251 
L 150.854129 50.458251 
z
" clip-path="url(#pf04f926767)" style="fill: #2e86ab; fill-opacity: 0.5; stroke: #000000; stroke-width: 0.5; stroke-linejoin: miter"/>
   </g>
   <g id="patch_9">
    <path d="M 163.577841 352.26 
L 176.301553 352.26 
L 176.301553 40.398192 
L 163.577841 40.398192 
z
" clip-path="url(#pf04f926767)" style="fill: #2e86ab; fill-opacity: 0.5; stroke: #000000; stroke-width: 0.5; stroke-linejoin: miter"/>
   </g>
   <g id="patch_10">
    <path d="M 176.301553 352.26 
L 189.025265 352.26 
L 189.025265 43.751545 
L 176.301553 43.751545 
z
" clip-path="url(#pf04f926767)" style="fill: #2e86ab; fill-opacity: 0.5; stroke: #000000; stroke-width: 0.5; stroke-linejoin: miter"/>
   </g>
   <g id="patch_11">
    <path d="M 189.025265 352.26 
L 201.748977 352.26 
L 201.748977 23.631429 
L 189.025265 23.631429 
z
" clip-path="url(#pf04f926767)" style="fill: #2e86ab; fill-opacity: 0.5; stroke: #000000; stroke-width: 0.5; stroke-linejoin: miter"/>
   </g>
   <g id="patch_12">
    <path d="M 201.748977 352.26 
L 214.472689 352.26 
L 214.472689 33.691487 
L 201.748977 33.691487 
z
" clip-path="url(#pf04f926767)" style="fill: #2e86ab; fill-opacity: 0.5; stroke: #000000; stroke-width: 0.5; stroke-linejoin: miter"/>
   </g>
   <g id="patch_13">
    <path d="M 214.472689 352.26 
L 227.196402 352.26 
L 227.196402 87.345131 
L 214.472689 87.345131 
z
" clip-path="url(#pf04f926767)" style="fill: #2e86ab; fill-opacity: 0.5; stroke: #000000; stroke-width: 0.5; stroke-linejoin: miter"/>
   </g>
   <g id="patch_14">
    <path d="M 227.196402 352.26 
L 239.920114 352.26 
L 239.920114 114.171953 
L 227.196402 114.171953 
z
" clip-path="url(#pf04f926767)" style="fill: #2e86ab; fill-opacity: 0.5; stroke: #000000; stroke-width: 0.5; stroke-linejoin: miter"/>
   </g>
   <g id="patch_15">
    <path d="M 239.920114 352.26 
L 252.643826 352.26 
L 252.643826 120.878659 
L 239.920114 120.878659 
z
" clip-path="url(#pf04f926767)" style="fill: #2e86ab; fill-opacity: 0.5; stroke: #000000; stroke-width: 0.5; stroke-linejoin: miter"/>
   </g>
   <g id="patch_16">
    <path d="M 252.643826 352.26 
L 265.367538 352.26 
L 265.367538 154.412187 
L 252.643826 154.412187 
z
" clip-path="url(#pf04f926767)" style="fill: #2e86ab; fill-opacity: 0.5; stroke: #000000; stroke-width: 0.5; stroke-linejoin: miter"/>
   </g>
   <g id="patch_17">
    <path d="M 265.367538 352.26 
L 278.09125 352.26 
L 278.09125 171.17895 
L 265.367538 171.17895 
z
" clip-path="url(#pf04f926767)" style="fill: #2e86ab; fill-opacity: 0.5; stroke: #000000; stroke-width: 0.5; stroke-linejoin: miter"/>
   </g>
   <g id="patch_18">
    <path d="M 278.09125 352.26 
L 290.814962 352.26 
L 290.814962 198.005773 
L 278.09125 198.005773 
z
" clip-path="url(#pf04f926767)" style="fill: #2e86ab; fill-opacity: 0.5; stroke: #000000; stroke-width: 0.5; stroke-linejoin: miter"/>
   </g>
   <g id="patch_19">
    <path d="M 290.814962 352.26 
L 303.538674 352.26 
L 303.538674 187.945714 
L 290.814962 187.945714 
z
" clip-path="url(#pf04f926767)" style="fill: #2e86ab; fill-opacity: 0.5; stroke: #000000; stroke-width: 0.5; stroke-linejoin: miter"/>
   </g>
   <g id="patch_20">
    <path d="M 303.538674 352.26 
L 316.262386 352.26 
L 316.262386 208.065831 
L 303.538674 208.065831 
z
" clip-path="url(#pf04f926767)" style="fill: #2e86ab; fill-opacity: 0.5; stroke: #000000; stroke-width: 0.5; stroke-linejoin: miter"/>
   </g>
   <g id="patch_21">
    <path d="M 316.262386 352.26 
L 328.986098 352.26 
L 328.986098 285.192945 
L 316.262386 285.192945 
z
" clip-path="url(#pf04f926767)" style="fill: #2e86ab; fill-opacity: 0.5; stroke: #000000; stroke-width: 0.5; stroke-linejoin: miter"/>
   </g>
   <g id="patch_22">
    <path d="M 328.986098 352.26 
L 341.709811 352.26 
L 341.709811 248.306064 
L 328.986098 248.306064 
z
" clip-path="url(#pf04f926767)" style="fill: #2e86ab; fill-opacity: 0.5; stroke: #000000; stroke-width: 0.5; stroke-linejoin: miter"/>
   </g>
   <g id="patch_23">
    <path d="M 341.709811 352.26 
L 354.433523 352.26 
L 354.433523 251.659417 
L 341.709811 251.659417 
z
" clip-path="url(#pf04f926767)" style="fill: #2e86ab; fill-opacity: 0.5; stroke: #000000; stroke-width: 0.5; stroke-linejoin: miter"/>
   </g>
   <g id="patch_24">
    <path d="M 354.433523 352.26 
L 367.157235 352.26 
L 367.157235 278.486239 
L 354.433523 278.486239 
z
" clip-path="url(#pf04f926767)" style="fill: #2e86ab; fill-opacity: 0.5; stroke: #000000; stroke-width: 0.5; stroke-linejoin: miter"/>
   </g>
   <g id="patch_25">
    <path d="M 367.157235 352.26 
L 379.880947 352.26 
L 379.880947 291.89965 
L 367.157235 291.89965 
z
" clip-path="url(#pf04f926767)" style="fill: #2e86ab; fill-opacity: 0.5; stroke: #000000; stroke-width: 0.5; stroke-linejoin: miter"/>
   </g>
   <g id="patch_26">
    <path d="M 379.880947 352.26 
L 392.604659 352.26 
L 392.604659 305.313061 
L 379.880947 305.313061 
z
" clip-path="url(#pf04f926767)" style="fill: #2e86ab; fill-opacity: 0.5; stroke: #000000; stroke-width: 0.5; stroke-linejoin: miter"/>
   </g>
   <g id="patch_27">
    <path d="M 392.604659 352.26 
L 405.328371 352.26 
L 405.328371 308.666414 
L 392.604659 308.666414 
z
" clip-path="url(#pf04f926767)" style="fill: #2e86ab; fill-opacity: 0.5; stroke: #000000; stroke-width: 0.5; stroke-linejoin: miter"/>
   </g>
   <g id="patch_28">
    <path d="M 405.328371 352.26 
L 418.052083 352.26 
L 418.052083 312.019767 
L 405.328371 312.019767 
z
" clip-path="url(#pf04f926767)" style="fill: #2e86ab; fill-opacity: 0.5; stroke: #000000; stroke-width: 0.5; stroke-linejoin: miter"/>
   </g>
   <g id="patch_29">
    <path d="M 418.052083 352.26 
L 430.775795 352.26 
L 430.775795 312.019767 
L 418.052083 312.019767 
z
" clip-path="url(#pf04f926767)" style="fill: #2e86ab; fill-opacity: 0.5; stroke: #000000; stroke-width: 0.5; stroke-linejoin: miter"/>
   </g>
   <g id="patch_30">
    <path d="M 430.775795 352.26 
L 443.499508 352.26 
L 443.499508 322.079825 
L 430.775795 322.079825 
z
" clip-path="url(#pf04f926767)" style="fill: #2e86ab; fill-opacity: 0.5; stroke: #000000; stroke-width: 0.5; stroke-linejoin: miter"/>
   </g>
   <g id="patch_31">
    <path d="M 443.499508 352.26 
L 456.22322 352.26 
L 456.22322 338.846589 
L 443.499508 338.846589 
z
" clip-path="url(#pf04f926767)" style="fill: #2e86ab; fill-opacity: 0.5; stroke: #000000; stroke-width: 0.5; stroke-linejoin: miter"/>
   </g>
   <g id="patch_32">
    <path d="M 456.22322 352.26 
L 468.946932 352.26 
L 468.946932 328.786531 
L 456.22322 328.786531 
z
" clip-path="url(#pf04f926767)" style="fill: #2e86ab; fill-opacity: 0.5; stroke: #000000; stroke-width: 0.5; stroke-linejoin: miter"/>
   </g>
   <g id="line2d_1">
    <path d="M 87.235568 342.877829 
L 89.153716 341.128777 
L 91.071863 339.111078 
L 92.990011 336.798099 
L 94.908158 334.163812 
L 96.826306 331.183485 
L 98.744454 327.834405 
L 100.662601 324.096587 
L 102.580749 319.953457 
L 104.498896 315.39245 
L 106.417044 310.405514 
L 108.335191 304.989475 
L 110.253339 299.146251 
L 112.171486 292.882913 
L 116.007782 279.149127 
L 119.844077 263.94011 
L 123.680372 247.470411 
L 127.516667 230.000631 
L 133.27111 202.563893 
L 142.861847 156.217158 
L 146.698142 138.441866 
L 150.534438 121.607862 
L 154.370733 106.022185 
L 158.207028 91.938974 
L 160.125175 85.519664 
L 162.043323 79.535411 
L 163.96147 73.993957 
L 165.879618 68.897295 
L 167.797766 64.242176 
L 169.715913 60.020899 
L 171.634061 56.222342 
L 173.552208 52.833165 
L 175.470356 49.839096 
L 177.388503 47.226206 
L 179.306651 44.982066 
L 181.224798 43.0967 
L 183.142946 41.563236 
L 185.061094 40.378226 
L 186.979241 39.541568 
L 188.897389 39.056069 
L 190.815536 38.92665 
L 192.733684 39.15928 
L 194.651831 39.759713 
L 196.569979 40.73214 
L 198.488126 42.077863 
L 200.406274 43.79411 
L 202.324422 45.873086 
L 204.242569 48.30134 
L 206.160717 51.059512 
L 208.078864 54.122463 
L 209.997012 57.459802 
L 213.833307 64.815318 
L 217.669602 72.817234 
L 231.096635 101.758005 
L 234.93293 109.51661 
L 238.769225 116.929885 
L 244.523668 127.47227 
L 250.27811 137.469641 
L 256.032553 147.035228 
L 261.786996 156.168444 
L 267.541438 164.786977 
L 271.377734 170.208893 
L 277.132176 177.873497 
L 284.804766 187.531969 
L 290.559209 194.814784 
L 294.395504 199.904493 
L 298.231799 205.26997 
L 303.986242 213.831782 
L 315.495127 231.416844 
L 319.331422 236.775462 
L 323.167718 241.628382 
L 327.004013 245.918501 
L 330.840308 249.673697 
L 334.676603 252.996767 
L 340.431046 257.507639 
L 348.103636 263.457259 
L 351.939931 266.650986 
L 357.694374 271.813137 
L 363.448816 277.335028 
L 376.875849 290.483024 
L 382.630292 295.74532 
L 386.466587 299.000136 
L 390.302882 301.998465 
L 394.139177 304.701048 
L 397.975472 307.081831 
L 401.811767 309.136246 
L 405.648062 310.888241 
L 409.484358 312.393045 
L 415.2388 314.373311 
L 422.91139 317.025794 
L 426.747686 318.55523 
L 430.583981 320.287091 
L 434.420276 322.226199 
L 440.174718 325.4557 
L 451.683604 332.396527 
L 459.356194 336.87216 
L 465.110637 340.004134 
L 468.946932 341.955171 
L 468.946932 341.955171 
" clip-path="url(#pf04f926767)" style="fill: none; stroke: #2e86ab; stroke-width: 1.5; stroke-linecap: round"/>
   </g>
   <g id="patch_33">
    <path d="M 68.15 352.26 
L 68.15 7.2 
" style="fill: none; stroke: #000000; stroke-width: 2; stroke-linejoin: miter; stroke-linecap: square"/>
   </g>
   <g id="patch_34">
    <path d="M 488.0325 352.26 
L 488.0325 7.2 
" style="fill: none; stroke: #000000; stroke-width: 2; stroke-linejoin: miter; stroke-linecap: square"/>
   </g>
   <g id="patch_35">
    <path d="M 68.15 352.26 
L 488.0325 352.26 
" style="fill: none; stroke: #000000; stroke-width: 2; stroke-linejoin: miter; stroke-linecap: square"/>
   </g>
   <g id="patch_36">
    <path d="M 68.15 7.2 
L 488.0325 7.2 
" style="fill: none; stroke: #000000; stroke-width: 2; stroke-linejoin: miter; stroke-linecap: square"/>
   </g>
  </g>
  <g id="axes_2">
   <g id="patch_37">
    <path d="M 564.6525 352.26 
L 984.535 352.26 
L 984.535 7.2 
L 564.6525 7.2 
z
" style="fill: #ffffff"/>
   </g>
   <g id="matplotlib.axis_3">
    <g id="xtick_7">
     <g id="text_15">
      <!-- 1 -->
      <g style="fill: #262626" transform="translate(572.628941 369.897812) scale(0.14 -0.14)">
       <use xlink:href="#DejaVuSans-31"/>
      </g>
     </g>
    </g>
    <g id="xtick_8">
     <g id="text_16">
      <!-- 2 -->
      <g style="fill: #262626" transform="translate(638.298555 369.897812) scale(0.14 -0.14)">
       <use xlink:href="#DejaVuSans-32"/>
      </g>
     </g>
    </g>
    <g id="xtick_9">
     <g id="text_17">
      <!-- 3 -->
      <g style="fill: #262626" transform="translate(703.968169 369.897812) scale(0.14 -0.14)">
       <use xlink:href="#DejaVuSans-33"/>
      </g>
     </g>
    </g>
    <g id="xtick_10">
     <g id="text_18">
      <!-- 4 -->
      <g style="fill: #262626" transform="translate(769.637782 369.897812) scale(0.14 -0.14)">
       <use xlink:href="#DejaVuSans-34"/>
      </g>
     </g>
    </g>
    <g id="xtick_11">
     <g id="text_19">
      <!-- 5 -->
      <g style="fill: #262626" transform="translate(835.307396 369.897812) scale(0.14 -0.14)">
       <use xlink:href="#DejaVuSans-35"/>
      </g>
     </g>
    </g>
    <g id="xtick_12">
     <g id="text_20">
      <!-- 6 -->
      <g style="fill: #262626" transform="translate(900.977009 369.897812) scale(0.14 -0.14)">
       <use xlink:href="#DejaVuSans-36"/>
      </g>
     </g>
    </g>
    <g id="xtick_13">
     <g id="text_21">
      <!-- 7 -->
      <g style="fill: #262626" transform="translate(966.646623 369.897812) scale(0.14 -0.14)">
       <defs>
        <path id="DejaVuSans-37" d="M 525 4666 
L 3525 4666 
L 3525 4397 
L 1831 0 
L 1172 0 
L 2766 4134 
L 525 4134 
L 525 4666 
z
" transform="scale(0.015625)"/>
       </defs>
       <use xlink:href="#DejaVuSans-37"/>
      </g>
     </g>
    </g>
    <g id="text_22">
     <!-- $\log(K_d)_{\mathrm{no\_lig}}$ -->
     <g style="fill: #262626" transform="translate(708.23375 395.049375) scale(0.24 -0.24)">
      <defs>
       <path id="DejaVuSans-5f" d="M 3263 -1063 
L 3263 -1509 
L -63 -1509 
L -63 -1063 
L 3263 -1063 
z
" transform="scale(0.015625)"/>
      </defs>
      <use xlink:href="#DejaVuSans-6c" transform="translate(0 0.015625)"/>
      <use xlink:href="#DejaVuSans-6f" transform="translate(27.783203 0.015625)"/>
      <use xlink:href="#DejaVuSans-67" transform="translate(88.964844 0.015625)"/>
      <use xlink:href="#DejaVuSans-28" transform="translate(152.441406 0.015625)"/>
      <use xlink:href="#DejaVuSans-Oblique-4b" transform="translate(191.455078 0.015625)"/>
      <use xlink:href="#DejaVuSans-Oblique-64" transform="translate(257.03125 -16.390625) scale(0.7)"/>
      <use xlink:href="#DejaVuSans-29" transform="translate(304.199219 0.015625)"/>
      <use xlink:href="#DejaVuSans-6e" transform="translate(344.169922 -16.390625) scale(0.7)"/>
      <use xlink:href="#DejaVuSans-6f" transform="translate(388.535156 -16.390625) scale(0.7)"/>
      <use xlink:href="#DejaVuSans-5f" transform="translate(431.362305 -16.390625) scale(0.7)"/>
      <use xlink:href="#DejaVuSans-6c" transform="translate(466.362305 -16.390625) scale(0.7)"/>
      <use xlink:href="#DejaVuSans-69" transform="translate(485.810547 -16.390625) scale(0.7)"/>
      <use xlink:href="#DejaVuSans-67" transform="translate(505.258789 -16.390625) scale(0.7)"/>
     </g>
    </g>
   </g>
   <g id="matplotlib.axis_4">
    <g id="ytick_7">
     <g id="text_23">
      <!-- 0 -->
      <g style="fill: #262626" transform="translate(548.745 357.578906) scale(0.14 -0.14)">
       <use xlink:href="#DejaVuSans-30"/>
      </g>
     </g>
    </g>
    <g id="ytick_8">
     <g id="text_24">
      <!-- 20 -->
      <g style="fill: #262626" transform="translate(539.8375 305.826375) scale(0.14 -0.14)">
       <use xlink:href="#DejaVuSans-32"/>
       <use xlink:href="#DejaVuSans-30" x="63.623047"/>
      </g>
     </g>
    </g>
    <g id="ytick_9">
     <g id="text_25">
      <!-- 40 -->
      <g style="fill: #262626" transform="translate(539.8375 254.073844) scale(0.14 -0.14)">
       <use xlink:href="#DejaVuSans-34"/>
       <use xlink:href="#DejaVuSans-30" x="63.623047"/>
      </g>
     </g>
    </g>
    <g id="ytick_10">
     <g id="text_26">
      <!-- 60 -->
      <g style="fill: #262626" transform="translate(539.8375 202.321313) scale(0.14 -0.14)">
       <use xlink:href="#DejaVuSans-36"/>
       <use xlink:href="#DejaVuSans-30" x="63.623047"/>
      </g>
     </g>
    </g>
    <g id="ytick_11">
     <g id="text_27">
      <!-- 80 -->
      <g style="fill: #262626" transform="translate(539.8375 150.568783) scale(0.14 -0.14)">
       <use xlink:href="#DejaVuSans-38"/>
       <use xlink:href="#DejaVuSans-30" x="63.623047"/>
      </g>
     </g>
    </g>
    <g id="ytick_12">
     <g id="text_28">
      <!-- 100 -->
      <g style="fill: #262626" transform="translate(530.93 98.816252) scale(0.14 -0.14)">
       <use xlink:href="#DejaVuSans-31"/>
       <use xlink:href="#DejaVuSans-30" x="63.623047"/>
       <use xlink:href="#DejaVuSans-30" x="127.246094"/>
      </g>
     </g>
    </g>
    <g id="ytick_13">
     <g id="text_29">
      <!-- 120 -->
      <g style="fill: #262626" transform="translate(530.93 47.063721) scale(0.14 -0.14)">
       <use xlink:href="#DejaVuSans-31"/>
       <use xlink:href="#DejaVuSans-32" x="63.623047"/>
       <use xlink:href="#DejaVuSans-30" x="127.246094"/>
      </g>
     </g>
    </g>
    <g id="text_30">
     <!-- Frequency -->
     <g style="fill: #262626" transform="translate(521.93875 241.72125) rotate(-90) scale(0.24 -0.24)">
      <use xlink:href="#DejaVuSans-46"/>
      <use xlink:href="#DejaVuSans-72" x="50.269531"/>
      <use xlink:href="#DejaVuSans-65" x="89.132812"/>
      <use xlink:href="#DejaVuSans-71" x="150.65625"/>
      <use xlink:href="#DejaVuSans-75" x="214.132812"/>
      <use xlink:href="#DejaVuSans-65" x="277.511719"/>
      <use xlink:href="#DejaVuSans-6e" x="339.035156"/>
      <use xlink:href="#DejaVuSans-63" x="402.414062"/>
      <use xlink:href="#DejaVuSans-79" x="457.394531"/>
     </g>
    </g>
   </g>
   <g id="patch_38">
    <path d="M 583.738068 352.26 
L 596.46178 352.26 
L 596.46178 349.672373 
L 583.738068 349.672373 
z
" clip-path="url(#pafbff40c66)" style="fill: #a23b72; fill-opacity: 0.5; stroke: #000000; stroke-width: 0.5; stroke-linejoin: miter"/>
   </g>
   <g id="patch_39">
    <path d="M 596.46178 352.26 
L 609.185492 352.26 
L 609.185492 347.084747 
L 596.46178 347.084747 
z
" clip-path="url(#pafbff40c66)" style="fill: #a23b72; fill-opacity: 0.5; stroke: #000000; stroke-width: 0.5; stroke-linejoin: miter"/>
   </g>
   <g id="patch_40">
    <path d="M 609.185492 352.26 
L 621.909205 352.26 
L 621.909205 331.558988 
L 609.185492 331.558988 
z
" clip-path="url(#pafbff40c66)" style="fill: #a23b72; fill-opacity: 0.5; stroke: #000000; stroke-width: 0.5; stroke-linejoin: miter"/>
   </g>
   <g id="patch_41">
    <path d="M 621.909205 352.26 
L 634.632917 352.26 
L 634.632917 287.569336 
L 621.909205 287.569336 
z
" clip-path="url(#pafbff40c66)" style="fill: #a23b72; fill-opacity: 0.5; stroke: #000000; stroke-width: 0.5; stroke-linejoin: miter"/>
   </g>
   <g id="patch_42">
    <path d="M 634.632917 352.26 
L 647.356629 352.26 
L 647.356629 228.053926 
L 634.632917 228.053926 
z
" clip-path="url(#pafbff40c66)" style="fill: #a23b72; fill-opacity: 0.5; stroke: #000000; stroke-width: 0.5; stroke-linejoin: miter"/>
   </g>
   <g id="patch_43">
    <path d="M 647.356629 352.26 
L 660.080341 352.26 
L 660.080341 158.188009 
L 647.356629 158.188009 
z
" clip-path="url(#pafbff40c66)" style="fill: #a23b72; fill-opacity: 0.5; stroke: #000000; stroke-width: 0.5; stroke-linejoin: miter"/>
   </g>
   <g id="patch_44">
    <path d="M 660.080341 352.26 
L 672.804053 352.26 
L 672.804053 145.249876 
L 660.080341 145.249876 
z
" clip-path="url(#pafbff40c66)" style="fill: #a23b72; fill-opacity: 0.5; stroke: #000000; stroke-width: 0.5; stroke-linejoin: miter"/>
   </g>
   <g id="patch_45">
    <path d="M 672.804053 352.26 
L 685.527765 352.26 
L 685.527765 134.89937 
L 672.804053 134.89937 
z
" clip-path="url(#pafbff40c66)" style="fill: #a23b72; fill-opacity: 0.5; stroke: #000000; stroke-width: 0.5; stroke-linejoin: miter"/>
   </g>
   <g id="patch_46">
    <path d="M 685.527765 352.26 
L 698.251477 352.26 
L 698.251477 23.631429 
L 685.527765 23.631429 
z
" clip-path="url(#pafbff40c66)" style="fill: #a23b72; fill-opacity: 0.5; stroke: #000000; stroke-width: 0.5; stroke-linejoin: miter"/>
   </g>
   <g id="patch_47">
    <path d="M 698.251477 352.26 
L 710.975189 352.26 
L 710.975189 88.322092 
L 698.251477 88.322092 
z
" clip-path="url(#pafbff40c66)" style="fill: #a23b72; fill-opacity: 0.5; stroke: #000000; stroke-width: 0.5; stroke-linejoin: miter"/>
   </g>
   <g id="patch_48">
    <path d="M 710.975189 352.26 
L 723.698902 352.26 
L 723.698902 147.837503 
L 710.975189 147.837503 
z
" clip-path="url(#pafbff40c66)" style="fill: #a23b72; fill-opacity: 0.5; stroke: #000000; stroke-width: 0.5; stroke-linejoin: miter"/>
   </g>
   <g id="patch_49">
    <path d="M 723.698902 352.26 
L 736.422614 352.26 
L 736.422614 98.672598 
L 723.698902 98.672598 
z
" clip-path="url(#pafbff40c66)" style="fill: #a23b72; fill-opacity: 0.5; stroke: #000000; stroke-width: 0.5; stroke-linejoin: miter"/>
   </g>
   <g id="patch_50">
    <path d="M 736.422614 352.26 
L 749.146326 352.26 
L 749.146326 129.724117 
L 736.422614 129.724117 
z
" clip-path="url(#pafbff40c66)" style="fill: #a23b72; fill-opacity: 0.5; stroke: #000000; stroke-width: 0.5; stroke-linejoin: miter"/>
   </g>
   <g id="patch_51">
    <path d="M 749.146326 352.26 
L 761.870038 352.26 
L 761.870038 184.064274 
L 749.146326 184.064274 
z
" clip-path="url(#pafbff40c66)" style="fill: #a23b72; fill-opacity: 0.5; stroke: #000000; stroke-width: 0.5; stroke-linejoin: miter"/>
   </g>
   <g id="patch_52">
    <path d="M 761.870038 352.26 
L 774.59375 352.26 
L 774.59375 217.70342 
L 761.870038 217.70342 
z
" clip-path="url(#pafbff40c66)" style="fill: #a23b72; fill-opacity: 0.5; stroke: #000000; stroke-width: 0.5; stroke-linejoin: miter"/>
   </g>
   <g id="patch_53">
    <path d="M 774.59375 352.26 
L 787.317462 352.26 
L 787.317462 238.404432 
L 774.59375 238.404432 
z
" clip-path="url(#pafbff40c66)" style="fill: #a23b72; fill-opacity: 0.5; stroke: #000000; stroke-width: 0.5; stroke-linejoin: miter"/>
   </g>
   <g id="patch_54">
    <path d="M 787.317462 352.26 
L 800.041174 352.26 
L 800.041174 248.754938 
L 787.317462 248.754938 
z
" clip-path="url(#pafbff40c66)" style="fill: #a23b72; fill-opacity: 0.5; stroke: #000000; stroke-width: 0.5; stroke-linejoin: miter"/>
   </g>
   <g id="patch_55">
    <path d="M 800.041174 352.26 
L 812.764886 352.26 
L 812.764886 251.342565 
L 800.041174 251.342565 
z
" clip-path="url(#pafbff40c66)" style="fill: #a23b72; fill-opacity: 0.5; stroke: #000000; stroke-width: 0.5; stroke-linejoin: miter"/>
   </g>
   <g id="patch_56">
    <path d="M 812.764886 352.26 
L 825.488598 352.26 
L 825.488598 261.693071 
L 812.764886 261.693071 
z
" clip-path="url(#pafbff40c66)" style="fill: #a23b72; fill-opacity: 0.5; stroke: #000000; stroke-width: 0.5; stroke-linejoin: miter"/>
   </g>
   <g id="patch_57">
    <path d="M 825.488598 352.26 
L 838.212311 352.26 
L 838.212311 279.806457 
L 825.488598 279.806457 
z
" clip-path="url(#pafbff40c66)" style="fill: #a23b72; fill-opacity: 0.5; stroke: #000000; stroke-width: 0.5; stroke-linejoin: miter"/>
   </g>
   <g id="patch_58">
    <path d="M 838.212311 352.26 
L 850.936023 352.26 
L 850.936023 284.98171 
L 838.212311 284.98171 
z
" clip-path="url(#pafbff40c66)" style="fill: #a23b72; fill-opacity: 0.5; stroke: #000000; stroke-width: 0.5; stroke-linejoin: miter"/>
   </g>
   <g id="patch_59">
    <path d="M 850.936023 352.26 
L 863.659735 352.26 
L 863.659735 292.744589 
L 850.936023 292.744589 
z
" clip-path="url(#pafbff40c66)" style="fill: #a23b72; fill-opacity: 0.5; stroke: #000000; stroke-width: 0.5; stroke-linejoin: miter"/>
   </g>
   <g id="patch_60">
    <path d="M 863.659735 352.26 
L 876.383447 352.26 
L 876.383447 310.857975 
L 863.659735 310.857975 
z
" clip-path="url(#pafbff40c66)" style="fill: #a23b72; fill-opacity: 0.5; stroke: #000000; stroke-width: 0.5; stroke-linejoin: miter"/>
   </g>
   <g id="patch_61">
    <path d="M 876.383447 352.26 
L 889.107159 352.26 
L 889.107159 321.208481 
L 876.383447 321.208481 
z
" clip-path="url(#pafbff40c66)" style="fill: #a23b72; fill-opacity: 0.5; stroke: #000000; stroke-width: 0.5; stroke-linejoin: miter"/>
   </g>
   <g id="patch_62">
    <path d="M 889.107159 352.26 
L 901.830871 352.26 
L 901.830871 316.033228 
L 889.107159 316.033228 
z
" clip-path="url(#pafbff40c66)" style="fill: #a23b72; fill-opacity: 0.5; stroke: #000000; stroke-width: 0.5; stroke-linejoin: miter"/>
   </g>
   <g id="patch_63">
    <path d="M 901.830871 352.26 
L 914.554583 352.26 
L 914.554583 318.620855 
L 901.830871 318.620855 
z
" clip-path="url(#pafbff40c66)" style="fill: #a23b72; fill-opacity: 0.5; stroke: #000000; stroke-width: 0.5; stroke-linejoin: miter"/>
   </g>
   <g id="patch_64">
    <path d="M 914.554583 352.26 
L 927.278295 352.26 
L 927.278295 303.095096 
L 914.554583 303.095096 
z
" clip-path="url(#pafbff40c66)" style="fill: #a23b72; fill-opacity: 0.5; stroke: #000000; stroke-width: 0.5; stroke-linejoin: miter"/>
   </g>
   <g id="patch_65">
    <path d="M 927.278295 352.26 
L 940.002008 352.26 
L 940.002008 331.558988 
L 927.278295 331.558988 
z
" clip-path="url(#pafbff40c66)" style="fill: #a23b72; fill-opacity: 0.5; stroke: #000000; stroke-width: 0.5; stroke-linejoin: miter"/>
   </g>
   <g id="patch_66">
    <path d="M 940.002008 352.26 
L 952.72572 352.26 
L 952.72572 336.734241 
L 940.002008 336.734241 
z
" clip-path="url(#pafbff40c66)" style="fill: #a23b72; fill-opacity: 0.5; stroke: #000000; stroke-width: 0.5; stroke-linejoin: miter"/>
   </g>
   <g id="patch_67">
    <path d="M 952.72572 352.26 
L 965.449432 352.26 
L 965.449432 344.49712 
L 952.72572 344.49712 
z
" clip-path="url(#pafbff40c66)" style="fill: #a23b72; fill-opacity: 0.5; stroke: #000000; stroke-width: 0.5; stroke-linejoin: miter"/>
   </g>
   <g id="line2d_2">
    <path d="M 583.738068 348.86364 
L 587.574363 347.495849 
L 589.492511 346.628315 
L 591.410658 345.6155 
L 593.328806 344.439128 
L 595.246954 343.080313 
L 597.165101 341.519835 
L 599.083249 339.738461 
L 601.001396 337.717278 
L 602.919544 335.438058 
L 604.837691 332.883629 
L 606.755839 330.038264 
L 608.673986 326.888085 
L 610.592134 323.421464 
L 612.510282 319.629432 
L 614.428429 315.506087 
L 616.346577 311.048969 
L 618.264724 306.259424 
L 620.182872 301.142902 
L 624.019167 289.97255 
L 627.855462 277.669878 
L 631.691757 264.435442 
L 637.4462 243.409259 
L 648.955085 200.667481 
L 654.709528 180.471831 
L 658.545823 167.690577 
L 662.382118 155.469429 
L 666.218413 143.811159 
L 670.054708 132.762918 
L 673.891003 122.454799 
L 677.727298 113.113851 
L 679.645446 108.899399 
L 681.563594 105.044397 
L 683.481741 101.59029 
L 685.399889 98.575487 
L 687.318036 96.032871 
L 689.236184 93.987499 
L 691.154331 92.454664 
L 693.072479 91.438499 
L 694.990626 90.931242 
L 696.908774 90.913251 
L 698.826922 91.353763 
L 700.745069 92.212395 
L 702.663217 93.441239 
L 704.581364 94.987448 
L 706.499512 96.796086 
L 710.335807 100.987894 
L 714.172102 105.641695 
L 719.926545 112.981541 
L 725.680987 120.627096 
L 729.517282 126.077793 
L 733.353578 132.019318 
L 737.189873 138.605584 
L 741.026168 145.915415 
L 744.862463 153.929189 
L 748.698758 162.529803 
L 754.453201 176.09158 
L 762.125791 194.113132 
L 765.962086 202.56788 
L 769.798381 210.411316 
L 773.634676 217.53693 
L 777.470971 223.903184 
L 781.307266 229.530415 
L 785.143562 234.491967 
L 788.979857 238.900301 
L 792.816152 242.889076 
L 798.570594 248.375784 
L 806.243185 255.286967 
L 815.833922 263.654766 
L 821.588365 268.402327 
L 827.342808 272.831324 
L 833.09725 276.975449 
L 844.606136 285.13229 
L 850.360578 289.541976 
L 856.115021 294.253942 
L 865.705759 302.277632 
L 869.542054 305.259563 
L 873.378349 307.941828 
L 877.214644 310.225634 
L 881.050939 312.0412 
L 882.969087 312.762434 
L 884.887234 313.359275 
L 888.72353 314.198441 
L 892.559825 314.626932 
L 896.39612 314.758306 
L 905.986858 314.803551 
L 909.823153 315.141637 
L 913.659448 315.871383 
L 915.577595 316.410484 
L 917.495743 317.073279 
L 919.41389 317.860696 
L 923.250186 319.79452 
L 927.086481 322.14887 
L 930.922776 324.817838 
L 946.267956 336.111519 
L 950.104251 338.591603 
L 953.940546 340.833715 
L 957.776842 342.83154 
L 961.613137 344.591648 
L 965.449432 346.125956 
L 965.449432 346.125956 
" clip-path="url(#pafbff40c66)" style="fill: none; stroke: #a23b72; stroke-width: 1.5; stroke-linecap: round"/>
   </g>
   <g id="patch_68">
    <path d="M 564.6525 352.26 
L 564.6525 7.2 
" style="fill: none; stroke: #000000; stroke-width: 2; stroke-linejoin: miter; stroke-linecap: square"/>
   </g>
   <g id="patch_69">
    <path d="M 984.535 352.26 
L 984.535 7.2 
" style="fill: none; stroke: #000000; stroke-width: 2; stroke-linejoin: miter; stroke-linecap: square"/>
   </g>
   <g id="patch_70">
    <path d="M 564.6525 352.26 
L 984.535 352.26 
" style="fill: none; stroke: #000000; stroke-width: 2; stroke-linejoin: miter; stroke-linecap: square"/>
   </g>
   <g id="patch_71">
    <path d="M 564.6525 7.2 
L 984.535 7.2 
" style="fill: none; stroke: #000000; stroke-width: 2; stroke-linejoin: miter; stroke-linecap: square"/>
   </g>
  </g>
 </g>
 <defs>
  <clipPath id="pf04f926767">
   <rect x="68.15" y="7.2" width="419.8825" height="345.06"/>
  </clipPath>
  <clipPath id="pafbff40c66">
   <rect x="564.6525" y="7.2" width="419.8825" height="345.06"/>
  </clipPath>
 </defs>
</svg>
